<svg width="209" height="63" viewBox="0 0 209 63" fill="none" xmlns="http://www.w3.org/2000/svg">
<path d="M17.63 35.4133V38.0982C17.63 38.3263 17.5394 38.545 17.3781 38.7063L8.39049 47.6939C8.22257 47.8618 7.9503 47.8618 7.78238 47.6939L5.34984 45.2614C5.18191 45.0934 5.18191 44.8212 5.34984 44.6533L14.3379 35.6652C14.4992 35.5039 14.7179 35.4133 14.946 35.4133H17.63Z" fill="#E9E9E9"/>
<path d="M24.08 28.9633H27.1215L19.78 36.3044V33.2633H16.7398L24.08 25.9231V28.9633Z" fill="#E9E9E9"/>
<path d="M38.1881 17.2886C38.356 17.4566 38.356 17.7288 38.1881 17.8967L29.5234 26.5614C29.3621 26.7227 29.1434 26.8133 28.9153 26.8133H26.23V24.1293C26.23 23.9012 26.3206 23.6825 26.4819 23.5212L35.1474 14.8561C35.3154 14.6882 35.5876 14.6882 35.7555 14.8561L38.1881 17.2886Z" fill="#E9E9E9"/>
<path d="M42.57 28.9635H0.43C0.192518 28.9635 0 29.156 0 29.3935V32.8335C0 33.0709 0.192517 33.2635 0.43 33.2635H42.57C42.8075 33.2635 43 33.0709 43 32.8335V29.3935C43 29.156 42.8075 28.9635 42.57 28.9635Z" fill="#E9E9E9"/>
<path d="M19.78 10.0435V52.1835C19.78 52.4209 19.9725 52.6135 20.21 52.6135H23.65C23.8875 52.6135 24.08 52.4209 24.08 52.1835V10.0435C24.08 9.80598 23.8875 9.61346 23.65 9.61346H20.21C19.9725 9.61346 19.78 9.80598 19.78 10.0435Z" fill="#E9E9E9"/>
<path d="M8.3906 14.8561L38.1881 44.6534C38.356 44.8213 38.356 45.0936 38.1881 45.2615L35.7556 47.6939C35.5877 47.8619 35.3154 47.8619 35.1475 47.6939L5.35003 17.8966C5.18211 17.7287 5.18211 17.4564 5.35003 17.2885L7.78249 14.8561C7.95041 14.6881 8.22267 14.6881 8.3906 14.8561Z" fill="#E9E9E9"/>
<path d="M189.13 51.5311C177.384 51.5311 169.59 43.4079 169.59 31.1135C169.59 18.819 177.384 10.6959 189.13 10.6959C200.821 10.6959 208.614 18.819 208.614 31.1135C208.614 43.4079 200.821 51.5311 189.13 51.5311ZM189.13 44.9996C196.265 44.9996 200.93 39.7306 200.93 31.1135C200.93 22.4964 196.265 17.2273 189.13 17.2273C181.995 17.2273 177.329 22.4964 177.329 31.1135C177.329 39.7306 181.995 44.9996 189.13 44.9996Z" fill="#E9E9E9"/>
<path d="M146.878 11.5741C159.611 11.5741 166.472 19.2032 166.472 31.1135C166.472 43.0237 159.611 50.6529 146.878 50.6529H131.949V11.5741H146.878ZM139.358 44.2861H146.768C154.342 44.2861 158.788 39.7855 158.788 31.1135C158.788 22.4415 154.342 17.9409 146.768 17.9409H139.358V44.2861Z" fill="#E9E9E9"/>
<path d="M118.404 21.7829V11.5741H125.539V50.6529H117.307L106.439 33.254C103.969 29.3571 101.445 25.2956 99.4687 21.5085C99.6882 28.4241 99.6882 34.6811 99.6882 40.4441V50.6529H92.553V11.5741H100.786L111.708 28.9729C113.904 32.5405 116.648 37.0412 118.624 40.7185C118.459 33.8029 118.404 27.5459 118.404 21.7829Z" fill="#E9E9E9"/>
<path d="M89.6946 50.6529H81.8459L78.7723 42.0358H61.6479L58.6291 50.6529H51L65.8741 11.5741H74.5461L89.6946 50.6529ZM65.3801 31.4977L63.8982 35.7239H76.522L74.9851 31.4977C73.613 27.9301 71.7469 22.7159 70.1552 18.1055C68.5635 22.7159 66.6974 27.9301 65.3801 31.4977Z" fill="#E9E9E9"/>
</svg>
